<?xml version="1.0" encoding="UTF-8"?>
<svg id="Capa_1" data-name="Capa 1" xmlns="http://www.w3.org/2000/svg" viewBox="0 0 402.35 179.49">
  <defs>
    <style>
      .cls-1 {
        fill: #fff;
      }

      .cls-2 {
        fill: none;
      }
    </style>
  </defs>
  <path class="cls-1" d="m0,86.62S20.12.31,112.14,0c52.25-.17,65.47,38.34,65.47,38.34,0,0-39.17-29.51-68.42-26.03C16.09,23.39,0,86.62,0,86.62Z"/>
  <path class="cls-1" d="m122.5,57.1l19.67-3.8c13.83-2.68,25.52.08,28.39,14.91,1.77,9.17-1.87,16.27-8.09,21.19l18.06,20.97-20.75,4.01-14.32-17.72-1,.19,1.74,20.15-18.25,3.53-5.44-63.44Zm19.48,12.22l1.39,14.77,2.75-.53c5-.97,8-4.23,6.89-9.98-.82-4.25-3.86-5.65-8.19-4.81l-2.83.55Z"/>
  <path class="cls-1" d="m226.56,93.78l-22.08,4.27-1.98,8.51-19.33,3.74,18.31-68.04,17.92-3.47,29.86,58.72-19.33,3.74-3.35-7.48Zm-5.78-12.89l-8.16-18.05-4.76,20.55,12.92-2.5Z"/>
  <path class="cls-1" d="m248.75,49.82l-9.25,1.79-1.34-16.77,36.75-7.11,1.26,16.79-9.17,1.77,4.1,46.67-18.25,3.53-4.1-46.67Z"/>
  <path class="cls-1" d="m387.85,24.86c-3.44-1.24-8.53-1.64-13.2-.73-3.75.73-5.33,2.41-4.97,4.25.45,2.33,3.37,4.02,8.33,7.29,11.08,7.19,14.23,11.43,15.37,17.34,2.53,13.08-9.17,21.4-20.76,23.64-6.08,1.18-13.76,1.28-17.95.19l-1.29-15.14c4.75,1.33,10.33,1.98,15.33,1.01,4.08-.79,6.29-2.77,5.87-4.94-.5-2.58-4.03-4.75-9.95-8.54-9.83-6.14-13.41-9.86-14.57-15.86-1.89-9.75,5.42-20.24,21.17-23.29,6.25-1.21,11.83-.99,15.37-.12l1.24,14.89Z"/>
  <path class="cls-2" d="m316,71.27c9.42-1.82,15.87-10.94,14.01-20.52-1.76-9.08-10.33-14.08-19.17-12.37-9.33,1.81-15.88,10.85-14.01,20.52,1.74,9,10.25,14.1,19.17,12.37Z"/>
  <path class="cls-1" d="m336.39,75.8c9.53-8.09,14.77-20.6,12.31-33.27-3.37-17.42-20.61-28.78-39.69-25.09-19.75,3.82-33.42,22.55-29.74,41.55,2.1,10.84,9.48,19.32,19.37,23.33,5.69-2.07,10.59-3.62,14.04-4.32,8.21-1.68,16.14-2.31,23.71-2.2Zm-38.98-20.93c-1.87-9.67,4.68-18.72,14.01-20.52,8.83-1.71,17.41,3.29,19.17,12.37,1.85,9.58-4.6,18.7-14.01,20.52-8.92,1.73-17.42-3.37-19.17-12.37Z"/>
  <path class="cls-1" d="m319,80.87c-41.38,6.9-119.55,52.31-164.39,54.03-32.74,1.26-52.88-19.54-54.6-46.56-1.21-19.01,5.71-39.18,28.74-48.86,28.74-12.07,51.73,5.17,51.73,5.17,0,0-10.35-35.06-55.75-33.91S47.75,63.7,57.75,110.56c8.3,38.89,41.72,66.03,79.89,68.36h.01s.02.01.04,0c.04,0,.08,0,.15,0,.3.03.94.07,1.91.1.5.02,1.06.03,1.73.04.32.01.67-.03,1.03.01,36.26,4.1,80.65-23.02,126.5-53.38,85.07-56.33,132.2-27.01,132.2-27.01,0,0-39.41-24.95-82.19-17.82Z"/>
  <path class="cls-1" d="m402.35,91.79s-6.88-8.16-24.14-15.52c-12.06-5.14-23.57.57-23.57.57,0,0,18.54,3.41,23.57,5.17,21.27,7.47,24.14,9.77,24.14,9.77Z"/>
</svg>